<svg fill="none" height="29" viewBox="0 0 116 29" width="116" xmlns="http://www.w3.org/2000/svg"><path d="m20.1795 1-19.1795 18c11.5774-9.6 27.4906-4 34 0z" stroke="#d4ccb6" stroke-linejoin="round"/><path d="m20.1795 4-19.1795 18c11.5774-9.6 27.4906-4 34 0z" stroke="#d4ccb6" stroke-linejoin="round"/><path d="m39.504 16.978c0-1.044.21-1.956.63-2.736.432-.78 1.026-1.38 1.782-1.8.768-.42 1.644-.63 2.628-.63 1.26 0 2.31.33 3.15.99.852.66 1.41 1.59 1.674 2.79h-3.276c-.276-.768-.81-1.152-1.602-1.152-.564 0-1.014.222-1.35.666-.336.432-.504 1.056-.504 1.872s.168 1.446.504 1.89c.336.432.786.648 1.35.648.792 0 1.326-.384 1.602-1.152h3.276c-.264 1.176-.822 2.1-1.674 2.772s-1.902 1.008-3.15 1.008c-.984 0-1.86-.21-2.628-.63-.756-.42-1.35-1.02-1.782-1.8-.42-.78-.63-1.692-.63-2.736zm10.8984-.018c0-1.032.192-1.938.576-2.718.396-.78.93-1.38 1.602-1.8s1.422-.63 2.25-.63c.708 0 1.326.144 1.854.432.54.288.954.666 1.242 1.134v-1.422h3.078v10.044h-3.078v-1.422c-.3.468-.72.846-1.26 1.134-.528.288-1.146.432-1.854.432-.816 0-1.56-.21-2.232-.63-.672-.432-1.206-1.038-1.602-1.818-.384-.792-.576-1.704-.576-2.736zm7.524.018c0-.768-.216-1.374-.648-1.818-.42-.444-.936-.666-1.548-.666s-1.134.222-1.566.666c-.42.432-.63 1.032-.63 1.8s.21 1.38.63 1.836c.432.444.954.666 1.566.666s1.128-.222 1.548-.666c.432-.444.648-1.05.648-1.818zm18.1208-5.13c1.248 0 2.238.378 2.97 1.134.744.756 1.116 1.806 1.116 3.15v5.868h-3.06v-5.454c0-.648-.174-1.146-.522-1.494-.336-.36-.804-.54-1.404-.54s-1.074.18-1.422.54c-.336.348-.504.846-.504 1.494v5.454h-3.06v-5.454c0-.648-.174-1.146-.522-1.494-.336-.36-.804-.54-1.404-.54s-1.074.18-1.422.54c-.336.348-.504.846-.504 1.494v5.454h-3.078v-10.044h3.078v1.26c.312-.42.72-.75 1.224-.99.504-.252 1.074-.378 1.71-.378.756 0 1.428.162 2.016.486.6.324 1.068.786 1.404 1.386.348-.552.822-1.002 1.422-1.35s1.254-.522 1.962-.522zm9.3167 1.53c.3-.468.714-.846 1.242-1.134s1.146-.432 1.854-.432c.828 0 1.578.21 2.25.63s1.2 1.02 1.584 1.8c.396.78.594 1.686.594 2.718s-.198 1.944-.594 2.736c-.384.78-.912 1.386-1.584 1.818-.672.42-1.422.63-2.25.63-.696 0-1.314-.144-1.854-.432-.528-.288-.942-.66-1.242-1.116v6.192h-3.078v-14.832h3.078zm4.392 3.582c0-.768-.216-1.368-.648-1.8-.42-.444-.942-.666-1.566-.666-.612 0-1.134.222-1.566.666-.42.444-.63 1.05-.63 1.818s.21 1.374.63 1.818c.432.444.954.666 1.566.666s1.134-.222 1.566-.666c.432-.456.648-1.068.648-1.836zm6.1868 5.184c-.54 0-.984-.156-1.332-.468-.336-.324-.504-.72-.504-1.188 0-.48.168-.882.504-1.206.348-.324.792-.486 1.332-.486.528 0 .96.162 1.296.486.348.324.522.726.522 1.206 0 .468-.174.864-.522 1.188-.336.312-.768.468-1.296.468zm5.1883-11.232c-.54 0-.984-.156-1.3322-.468-.336-.324-.504-.72-.504-1.188 0-.48.168-.876.504-1.188.3482-.324.7922-.486 1.3322-.486.528 0 .96.162 1.296.486.348.312.522.708.522 1.188 0 .468-.174.864-.522 1.188-.336.312-.768.468-1.296.468zm1.53 1.044v10.044h-3.0782v-10.044zm8.35-.108c1.176 0 2.112.384 2.808 1.152.708.756 1.062 1.8 1.062 3.132v5.868h-3.06v-5.454c0-.672-.174-1.194-.522-1.566s-.816-.558-1.404-.558-1.056.186-1.404.558-.522.894-.522 1.566v5.454h-3.078v-10.044h3.078v1.332c.312-.444.732-.792 1.26-1.044.528-.264 1.122-.396 1.782-.396z" fill="#d5ccb6"/></svg>